<?xml version="1.0" standalone="no"?><svg xmlns="http://www.w3.org/2000/svg" viewBox="0 0 1440 320"><path fill="#f78ef7" fill-opacity="1" d="M0,0L34.3,21.3C68.6,43,137,85,206,101.3C274.3,117,343,107,411,85.3C480,64,549,32,617,42.7C685.7,53,754,107,823,149.3C891.4,192,960,224,1029,208C1097.1,192,1166,128,1234,106.7C1302.9,85,1371,107,1406,117.3L1440,128L1440,320L1405.7,320C1371.4,320,1303,320,1234,320C1165.7,320,1097,320,1029,320C960,320,891,320,823,320C754.3,320,686,320,617,320C548.6,320,480,320,411,320C342.9,320,274,320,206,320C137.1,320,69,320,34,320L0,320Z"></path></svg>